<svg width="21" height="257" viewBox="0 0 21 257" fill="none" xmlns="http://www.w3.org/2000/svg">
<g id="Group">
<path id="Vector" d="M16.2114 256.407H0.567719L0.567719 249.078C0.567719 246.102 1.78277 244.615 4.21046 244.615C5.99011 244.615 7.26165 245.585 8.02752 247.524C8.41536 245.452 9.59849 244.416 11.5843 244.416C14.6699 244.416 16.2114 246.046 16.2114 249.306V256.407ZM13.6954 249.429C13.6954 248.145 13.04 247.504 11.7267 247.504C10.1017 247.504 9.28677 248.464 9.28677 250.381V251.255H7.41628C7.01617 248.849 6.00975 247.644 4.39702 247.644C3.5207 247.644 3.08376 248.184 3.08376 249.262L3.08376 253.506H13.6954V249.426V249.429Z" fill="url(#paint0_linear_1219_209)"/>
<path id="Vector_2" d="M4.72311 231.895H16.2086V234.158L14.7431 234.509C15.7201 235.829 16.2086 237.229 16.2086 238.709C16.2086 241.058 14.8192 242.231 12.0405 242.231H4.72311V239.332H11.9644C13.2335 239.332 13.8668 238.777 13.8668 237.67C13.8668 236.73 13.4913 235.771 12.7401 234.794H4.72067L4.72311 231.895Z" fill="url(#paint1_linear_1219_209)"/>
<path id="Vector_3" d="M0.567719 226.259H2.86528V229.158H0.567719L0.567719 226.259ZM4.72349 226.259H16.209V229.158H4.72349V226.259Z" fill="url(#paint2_linear_1219_209)"/>
<path id="Vector_4" d="M0.567719 220.625H16.2114V223.524H0.567719L0.567719 220.625Z" fill="url(#paint3_linear_1219_209)"/>
<path id="Vector_5" d="M15.5206 207.718C15.9796 209.476 16.2104 211.194 16.2104 212.871C16.2104 216.582 14.2196 218.438 10.2381 218.438C6.56343 218.438 4.72487 216.622 4.72487 212.991C4.72487 212.218 4.9065 211.427 5.27224 210.617H0.569061L0.569061 207.718H15.523H15.5206ZM7.72202 210.617C7.32927 211.216 7.13045 211.967 7.13045 212.871C7.13045 214.672 8.14178 215.573 10.162 215.573C12.5602 215.573 13.7606 214.636 13.7606 212.763C13.7606 212.004 13.655 211.29 13.4439 210.62L7.72202 210.617Z" fill="url(#paint4_linear_1219_209)"/>
<path id="Vector_6" d="M0.567719 202.085H2.86528V204.984H0.567719L0.567719 202.085ZM4.72349 202.085H16.209V204.984H4.72349V202.085Z" fill="url(#paint5_linear_1219_209)"/>
<path id="Vector_7" d="M16.2111 199.351H4.72559V197.109L6.40948 196.749C5.28768 195.646 4.72559 194.392 4.72559 192.986C4.72559 190.266 6.14195 188.906 8.96975 188.906H16.2111V191.805H8.96975C7.70068 191.805 7.06734 192.436 7.06734 193.697C7.06734 194.638 7.44291 195.558 8.19405 196.454H16.2135V199.353L16.2111 199.351Z" fill="url(#paint6_linear_1219_209)"/>
<path id="Vector_8" d="M15.335 175.918C18.6906 175.918 20.3671 177.936 20.3671 181.966C20.3671 183.383 20.1855 184.635 19.8197 185.729H17.5221C17.8879 184.612 18.0695 183.353 18.0695 181.944C18.0695 179.858 17.1932 178.817 15.443 178.817C15.8088 179.679 15.9904 180.604 15.9904 181.596C15.9904 185.008 14.1273 186.716 10.4011 186.716C6.61596 186.716 4.72339 184.728 4.72339 180.754C4.72339 179.418 4.88049 177.808 5.19469 175.918H15.335ZM7.32782 178.817C7.15354 179.291 7.06519 179.966 7.06519 180.84C7.06519 182.845 8.16977 183.849 10.379 183.849C12.517 183.849 13.5848 182.985 13.5848 181.257C13.5848 180.425 13.3885 179.612 12.9957 178.817H7.32782Z" fill="url(#paint7_linear_1219_209)"/>
<path id="Vector_9" d="M16.2108 168.259H4.72528C1.57592 168.259 0 166.539 0 163.095C0 162.155 0.144811 161.3 0.436919 160.535H2.73452C2.44241 161.256 2.2976 162.042 2.2976 162.886C2.2976 164.533 3.10764 165.358 4.72528 165.358V161.912H7.02284V165.358H16.2108V168.257V168.259Z" fill="url(#paint8_linear_1219_209)"/>
<path id="Vector_10" d="M10.4669 161.467C6.61545 161.467 4.69098 159.572 4.69098 155.78C4.69098 151.987 6.61545 150.092 10.4669 150.092C14.3183 150.092 16.2329 151.99 16.2329 155.78C16.2329 159.57 14.3109 161.455 10.4669 161.467ZM14.0213 155.78C14.0213 153.919 12.8209 152.991 10.4227 152.991C8.08092 152.991 6.91003 153.921 6.91003 155.78C6.91003 157.638 8.08092 158.571 10.4227 158.571C12.8209 158.571 14.0213 157.64 14.0213 155.78Z" fill="url(#paint9_linear_1219_209)"/>
<path id="Vector_11" d="M16.2111 147.903H4.72559V145.662L6.19103 145.301C5.21407 144.294 4.72559 143.229 4.72559 142.105H7.06734C7.06734 143.185 7.51656 144.149 8.41252 145.004H16.2111V147.903Z" fill="url(#paint10_linear_1219_209)"/>
<path id="Vector_12" d="M15.4888 122.796C16.0436 124.058 16.3209 125.636 16.3209 127.534C16.3209 133.054 13.6036 135.813 8.17136 135.813C3.02879 135.813 0.45874 133.005 0.45874 127.389C0.45874 125.675 0.714019 124.144 1.22459 122.794H3.85113C3.26691 124.144 2.97482 125.602 2.97482 127.17C2.97482 130.926 4.7078 132.804 8.17136 132.804C11.927 132.804 13.8049 131.031 13.8049 127.487C13.8049 126.962 13.7165 126.363 13.5422 125.693H8.99123V122.794H15.4888V122.796Z" fill="url(#paint11_linear_1219_209)"/>
<path id="Vector_13" d="M16.2111 120.336H4.72559V118.095L6.19103 117.735C5.21407 116.728 4.72559 115.663 4.72559 114.539H7.06734C7.06734 115.619 7.51656 116.583 8.41252 117.438H16.2111V120.336Z" fill="url(#paint12_linear_1219_209)"/>
<path id="Vector_14" d="M4.72339 108.051C4.72339 104.565 6.50304 102.822 10.0623 102.822C10.5361 102.822 11.0098 102.854 11.4836 102.92V110.545C13.1037 110.545 13.9113 109.357 13.9113 106.978C13.9113 105.819 13.8008 104.658 13.5824 103.5H15.8799C16.0984 104.513 16.2089 105.746 16.2089 107.196C16.2089 111.36 14.2501 113.441 10.3348 113.441C6.59389 113.441 4.72339 111.647 4.72339 108.051ZM9.47077 110.545V105.643H9.38241C7.79177 105.643 6.99889 106.445 6.99889 108.048C6.99889 109.58 7.82367 110.412 9.47077 110.542V110.545Z" fill="url(#paint13_linear_1219_209)"/>
<path id="Vector_15" d="M4.72339 95.7994C4.72339 92.3138 6.50304 90.5709 10.0623 90.5709C10.5361 90.5709 11.0098 90.6029 11.4836 90.6692V98.2935C13.1037 98.2935 13.9113 97.1054 13.9113 94.7268C13.9113 93.5682 13.8008 92.4071 13.5824 91.2484H15.8799C16.0984 92.2622 16.2089 93.4945 16.2089 94.9452C16.2089 99.1084 14.2501 101.19 10.3348 101.19C6.59389 101.19 4.72339 99.3931 4.72339 95.797V95.7994ZM9.47077 98.2935V93.3914H9.38241C7.79177 93.3914 6.99889 94.1941 6.99889 95.797C6.99889 97.3287 7.82367 98.1609 9.47077 98.291V98.2935Z" fill="url(#paint14_linear_1219_209)"/>
<path id="Vector_16" d="M16.2111 88.3936H4.72559V86.1525L6.40948 85.7917C5.28768 84.6895 4.72559 83.4352 4.72559 82.0286C4.72559 79.3088 6.14195 77.9489 8.96975 77.9489H16.2111V80.8479H8.96975C7.70068 80.8479 7.06734 81.4787 7.06734 82.7404C7.06734 83.6806 7.44291 84.6011 8.19405 85.4971H16.2135V88.3961L16.2111 88.3936Z" fill="url(#paint15_linear_1219_209)"/>
<path id="Vector_17" d="M0.566925 59.3056H3.06087L3.06087 67.1385H6.99819L6.99819 59.6787H9.59034V67.1729H13.6921V59.1534H16.2082V70.0154H0.564453L0.564453 59.3056H0.566925Z" fill="url(#paint16_linear_1219_209)"/>
<path id="Vector_18" d="M16.2111 56.7478H4.72559V54.5042L6.40948 54.1434C5.28768 53.0412 4.72559 51.7869 4.72559 50.3804C4.72559 47.6606 6.14195 46.3007 8.96975 46.3007H16.2111V49.1997H8.96975C7.70068 49.1997 7.06734 49.8306 7.06734 51.0923C7.06734 52.0324 7.44291 52.9529 8.19405 53.8488H16.2135L16.2111 56.7478Z" fill="url(#paint17_linear_1219_209)"/>
<path id="Vector_19" d="M4.72339 38.7181C4.72339 35.2324 6.50304 33.4896 10.0623 33.4896C10.5361 33.4896 11.0098 33.5215 11.4836 33.5878V41.212C13.1037 41.212 13.9113 40.024 13.9113 37.6454C13.9113 36.4868 13.8008 35.3257 13.5824 34.1671H15.8799C16.0984 35.1809 16.2089 36.4132 16.2089 37.8639C16.2089 42.027 14.2501 44.1086 10.3348 44.1086C6.59389 44.1086 4.72339 42.3117 4.72339 38.7156V38.7181ZM9.47077 41.212V36.3101H9.38241C7.79177 36.3101 6.99889 37.1127 6.99889 38.7156C6.99889 40.2473 7.82367 41.0819 9.47077 41.212Z" fill="url(#paint18_linear_1219_209)"/>
<path id="Vector_20" d="M16.2111 31.3123H4.72559V29.0688L6.19103 28.7079C5.21407 27.7015 4.72559 26.6362 4.72559 25.5144H7.06734C7.06734 26.5944 7.51656 27.5591 8.41252 28.4134H16.2111V31.3123Z" fill="url(#paint19_linear_1219_209)"/>
<path id="Vector_21" d="M15.335 13.6237C18.6906 13.6237 20.3671 15.6415 20.3671 19.6721C20.3671 21.0884 20.1855 22.3428 19.8197 23.4351H17.5221C17.8879 22.3183 18.0695 21.059 18.0695 19.65C18.0695 17.5635 17.1932 16.5227 15.443 16.5227C15.8088 17.3819 15.9904 18.3097 15.9904 19.3014C15.9904 22.7134 14.1273 24.4219 10.4011 24.4219C6.61596 24.4219 4.72339 22.4361 4.72339 18.4595C4.72339 17.1241 4.88049 15.5138 5.19469 13.6237H15.335ZM7.32782 16.5227C7.15354 16.9965 7.06519 17.6715 7.06519 18.5454C7.06519 20.5509 8.16977 21.5548 10.379 21.5548C12.517 21.5548 13.5848 20.6908 13.5848 18.9627C13.5848 18.1305 13.3885 17.318 12.9957 16.5227H7.32782Z" fill="url(#paint20_linear_1219_209)"/>
<path id="Vector_22" d="M4.72311 12.2565V9.1833L12.993 6.28432L4.72311 3.45156V0.432338L16.5473 5.20178C18.6338 6.04865 20.1164 7.40114 21.0001 9.25934L19.0192 10.6585C18.4571 9.37473 17.5415 8.44197 16.2724 7.85775L4.72067 12.2541L4.72311 12.2565Z" fill="url(#paint21_linear_1219_209)"/>
</g>
<defs>
<linearGradient id="paint0_linear_1219_209" x1="0.567719" y1="250.412" x2="16.2114" y2="250.412" gradientUnits="userSpaceOnUse">
<stop stop-color="#4CA757"/>
<stop offset="1" stop-color="#16A571"/>
</linearGradient>
<linearGradient id="paint1_linear_1219_209" x1="4.72067" y1="237.063" x2="16.2086" y2="237.063" gradientUnits="userSpaceOnUse">
<stop stop-color="#4CA757"/>
<stop offset="1" stop-color="#16A571"/>
</linearGradient>
<linearGradient id="paint2_linear_1219_209" x1="0.567719" y1="227.708" x2="16.209" y2="227.708" gradientUnits="userSpaceOnUse">
<stop stop-color="#4CA757"/>
<stop offset="1" stop-color="#16A571"/>
</linearGradient>
<linearGradient id="paint3_linear_1219_209" x1="0.567719" y1="222.075" x2="16.2114" y2="222.075" gradientUnits="userSpaceOnUse">
<stop stop-color="#4CA757"/>
<stop offset="1" stop-color="#16A571"/>
</linearGradient>
<linearGradient id="paint4_linear_1219_209" x1="0.569061" y1="213.078" x2="16.2104" y2="213.078" gradientUnits="userSpaceOnUse">
<stop stop-color="#4CA757"/>
<stop offset="1" stop-color="#16A571"/>
</linearGradient>
<linearGradient id="paint5_linear_1219_209" x1="0.567719" y1="203.534" x2="16.209" y2="203.534" gradientUnits="userSpaceOnUse">
<stop stop-color="#4CA757"/>
<stop offset="1" stop-color="#16A571"/>
</linearGradient>
<linearGradient id="paint6_linear_1219_209" x1="4.72559" y1="194.129" x2="16.2135" y2="194.129" gradientUnits="userSpaceOnUse">
<stop stop-color="#4CA757"/>
<stop offset="1" stop-color="#16A571"/>
</linearGradient>
<linearGradient id="paint7_linear_1219_209" x1="4.72339" y1="181.317" x2="20.3671" y2="181.317" gradientUnits="userSpaceOnUse">
<stop stop-color="#4CA757"/>
<stop offset="1" stop-color="#16A571"/>
</linearGradient>
<linearGradient id="paint8_linear_1219_209" x1="0" y1="164.397" x2="16.2108" y2="164.397" gradientUnits="userSpaceOnUse">
<stop stop-color="#4CA757"/>
<stop offset="1" stop-color="#16A571"/>
</linearGradient>
<linearGradient id="paint9_linear_1219_209" x1="4.69098" y1="155.78" x2="16.2329" y2="155.78" gradientUnits="userSpaceOnUse">
<stop stop-color="#4CA757"/>
<stop offset="1" stop-color="#16A571"/>
</linearGradient>
<linearGradient id="paint10_linear_1219_209" x1="4.72559" y1="145.004" x2="16.2111" y2="145.004" gradientUnits="userSpaceOnUse">
<stop stop-color="#4CA757"/>
<stop offset="1" stop-color="#16A571"/>
</linearGradient>
<linearGradient id="paint11_linear_1219_209" x1="0.45874" y1="129.303" x2="16.3209" y2="129.303" gradientUnits="userSpaceOnUse">
<stop stop-color="#4CA757"/>
<stop offset="1" stop-color="#16A571"/>
</linearGradient>
<linearGradient id="paint12_linear_1219_209" x1="4.72559" y1="117.438" x2="16.2111" y2="117.438" gradientUnits="userSpaceOnUse">
<stop stop-color="#4CA757"/>
<stop offset="1" stop-color="#16A571"/>
</linearGradient>
<linearGradient id="paint13_linear_1219_209" x1="4.72339" y1="108.132" x2="16.2089" y2="108.132" gradientUnits="userSpaceOnUse">
<stop stop-color="#4CA757"/>
<stop offset="1" stop-color="#16A571"/>
</linearGradient>
<linearGradient id="paint14_linear_1219_209" x1="4.72339" y1="95.8805" x2="16.2089" y2="95.8805" gradientUnits="userSpaceOnUse">
<stop stop-color="#4CA757"/>
<stop offset="1" stop-color="#16A571"/>
</linearGradient>
<linearGradient id="paint15_linear_1219_209" x1="4.72559" y1="83.1725" x2="16.2135" y2="83.1725" gradientUnits="userSpaceOnUse">
<stop stop-color="#4CA757"/>
<stop offset="1" stop-color="#16A571"/>
</linearGradient>
<linearGradient id="paint16_linear_1219_209" x1="0.564453" y1="64.5844" x2="16.2082" y2="64.5844" gradientUnits="userSpaceOnUse">
<stop stop-color="#4CA757"/>
<stop offset="1" stop-color="#16A571"/>
</linearGradient>
<linearGradient id="paint17_linear_1219_209" x1="4.72559" y1="51.5243" x2="16.2135" y2="51.5243" gradientUnits="userSpaceOnUse">
<stop stop-color="#4CA757"/>
<stop offset="1" stop-color="#16A571"/>
</linearGradient>
<linearGradient id="paint18_linear_1219_209" x1="4.72339" y1="38.7991" x2="16.2089" y2="38.7991" gradientUnits="userSpaceOnUse">
<stop stop-color="#4CA757"/>
<stop offset="1" stop-color="#16A571"/>
</linearGradient>
<linearGradient id="paint19_linear_1219_209" x1="4.72559" y1="28.4134" x2="16.2111" y2="28.4134" gradientUnits="userSpaceOnUse">
<stop stop-color="#4CA757"/>
<stop offset="1" stop-color="#16A571"/>
</linearGradient>
<linearGradient id="paint20_linear_1219_209" x1="4.72339" y1="19.0228" x2="20.3671" y2="19.0228" gradientUnits="userSpaceOnUse">
<stop stop-color="#4CA757"/>
<stop offset="1" stop-color="#16A571"/>
</linearGradient>
<linearGradient id="paint21_linear_1219_209" x1="4.72067" y1="6.34443" x2="21.0001" y2="6.34443" gradientUnits="userSpaceOnUse">
<stop stop-color="#4CA757"/>
<stop offset="1" stop-color="#16A571"/>
</linearGradient>
</defs>
</svg>
